<?xml version="1.0" encoding="UTF-8" standalone="no"?>
<svg width="581px" height="581px" viewBox="0 0 581 581" version="1.1" xmlns="http://www.w3.org/2000/svg" xmlns:xlink="http://www.w3.org/1999/xlink" xmlns:sketch="http://www.bohemiancoding.com/sketch/ns">
    <!-- Generator: Sketch 3.0.4 (8054) - http://www.bohemiancoding.com/sketch -->
    <title>Slice 2</title>
    <desc>Created with Sketch.</desc>
    <defs></defs>
    <g id="Page-1" stroke="none" stroke-width="1" fill="none" fill-rule="evenodd" sketch:type="MSPage">
        <g id="avatar_unknown" sketch:type="MSLayerGroup">
            <rect id="Rectangle-path" fill="#F39800" sketch:type="MSShapeGroup" x="0" y="0" width="580.667" height="580.667"></rect>
            <rect id="Rectangle-path" fill="#EA5514" sketch:type="MSShapeGroup" x="0" y="549" width="580.667" height="31.865"></rect>
            <path d="M377.533,305.067 C366.635,298.464 355.068,293.364 342.958,289.441 C341.381,288.93 339.153,288.777 339.068,286.597 C339.004,284.962 340.853,284.387 342.057,283.555 C343.08,282.849 344.133,282.187 345.155,281.48 C380.79,256.833 395.016,209.997 379.13,169.633 C363.095,128.89 320.47,103.945 277.602,110.216 C239.336,115.814 206.824,144.583 198.625,180.101 C189.216,220.859 203.544,258.994 236.921,282.292 C238.822,283.619 242.284,284.173 241.855,287.132 C241.499,289.586 238.302,289.399 236.292,290.135 C173.679,313.049 136.2,357.38 121.838,422.361 C116.727,445.486 130.414,472.094 162.297,471.115 C204.762,469.811 247.297,470.793 289.801,470.793 L289.801,470.65 C333.549,470.65 377.332,469.595 421.029,471.083 C443.805,471.859 464.892,451.837 459.67,424.715 C449.661,372.73 422.94,332.579 377.533,305.067 L377.533,305.067 Z" id="Shape" fill="#FFFFFF" sketch:type="MSShapeGroup"></path>
        </g>
    </g>
</svg>